<?xml version="1.0" standalone="no"?><!DOCTYPE svg PUBLIC "-//W3C//DTD SVG 1.1//EN" "http://www.w3.org/Graphics/SVG/1.1/DTD/svg11.dtd"><svg t="1566788257537" class="icon" viewBox="0 0 1024 1024" version="1.1" xmlns="http://www.w3.org/2000/svg" p-id="1635" xmlns:xlink="http://www.w3.org/1999/xlink" width="16" height="16"><defs><style type="text/css"></style></defs><path d="M0 0h1024v1024H0z" fill="#d81e06" fill-opacity="0" p-id="1636"></path><path d="M330.666667 454.869333a42.666667 42.666667 0 1 1-64-56.405333c39.424-44.8 92.202667-64.469333 153.770666-58.026667 33.408 3.477333 57.386667 12.458667 91.541334 30.784l12.736 6.869334c30.976 16.682667 49.877333 23.744 78.997333 27.136 40.661333 4.693333 65.92-8 84.096-41.557334a42.666667 42.666667 0 1 1 75.050667 40.661334c-35.029333 64.64-94.101333 94.336-168.96 85.653333-41.728-4.842667-69.994667-15.402667-109.653334-36.757333l-12.586666-6.805334c-25.28-13.546667-39.850667-18.986667-60.096-21.12-34.56-3.626667-60.010667 5.888-80.874667 29.568z m0 236.778667a42.666667 42.666667 0 0 1-64-56.405333c39.424-44.8 92.202667-64.490667 153.770666-58.026667 33.408 3.477333 57.386667 12.458667 91.541334 30.784 2.624 1.386667 11.370667 6.144 12.736 6.869333 30.976 16.682667 49.877333 23.744 78.997333 27.114667 40.661333 4.714667 65.92-7.978667 84.096-41.536a42.666667 42.666667 0 0 1 75.050667 40.64c-35.029333 64.64-94.101333 94.336-168.96 85.674667-41.728-4.842667-69.994667-15.424-109.653334-36.757334l-12.586666-6.826666c-25.28-13.546667-39.850667-18.986667-60.096-21.12-34.56-3.605333-60.010667 5.909333-80.874667 29.589333z" fill="#d81e06" p-id="1637"></path></svg>