<?xml version="1.0" standalone="no"?><!DOCTYPE svg PUBLIC "-//W3C//DTD SVG 1.1//EN" "http://www.w3.org/Graphics/SVG/1.1/DTD/svg11.dtd"><svg t="1566810251507" class="icon" viewBox="0 0 1024 1024" version="1.1" xmlns="http://www.w3.org/2000/svg" p-id="8784" xmlns:xlink="http://www.w3.org/1999/xlink" width="16" height="16"><defs><style type="text/css"></style></defs><path d="M368 380l187.392-245.696A16 16 0 0 1 568.128 128H656a16 16 0 0 1 12.704 25.696L432.064 464l236.64 310.304A16 16 0 0 1 656 800h-87.872a16 16 0 0 1-12.736-6.304L368 548l-187.392 245.696a16 16 0 0 1-12.736 6.304H80a16 16 0 0 1-12.704-25.696L303.936 464 67.296 153.696A16 16 0 0 1 80 128h87.872a16 16 0 0 1 12.736 6.304l187.392 245.696zM872 860.16h66.88a21.12 21.12 0 0 1 21.12 21.12v25.6a21.12 21.12 0 0 1-21.12 21.12h-181.76a21.12 21.12 0 0 1-21.12-21.12v-38.816a21.12 21.12 0 0 1 5.184-13.888l98.752-113.376a21.12 21.12 0 0 0-15.936-35.008h-66.88a21.12 21.12 0 0 1-21.12-21.12v-23.552a21.12 21.12 0 0 1 21.12-21.12h181.76a21.12 21.12 0 0 1 21.12 21.12v36.8a21.12 21.12 0 0 1-5.184 13.824l-98.752 113.408a21.12 21.12 0 0 0 15.936 35.008z" p-id="8785" fill="#d81e06"></path></svg>