<?xml version="1.0" standalone="no"?><!DOCTYPE svg PUBLIC "-//W3C//DTD SVG 1.1//EN" "http://www.w3.org/Graphics/SVG/1.1/DTD/svg11.dtd"><svg t="1566825693051" class="icon" viewBox="0 0 1024 1024" version="1.1" xmlns="http://www.w3.org/2000/svg" p-id="9265" xmlns:xlink="http://www.w3.org/1999/xlink" width="16" height="16"><defs><style type="text/css"></style></defs><path d="M308.48 267.712c-97.92 0-129.6 19.2-156.48 71.04-9.6 19.2-15.36 40.32-15.36 60.48 0 94.048 92.16 145.92 174.688 145.92 78.72 0 142.08-51.84 194.88-155.52 56.64-112.32 133.44-145.92 216-145.92 88.32 0 193.888 25.92 193.888 158.4 0 137.28-97.92 158.4-158.368 158.4-7.68 0-16.32 0-24.96-0.96v-24.96c43.232 0 155.52-3.84 155.52-124.8 0-56.64-29.76-116.16-96-130.56-23.072-4.8-46.08-7.68-68.192-7.68-75.808 0-143.008 32.64-189.088 126.72-58.56 120.96-131.52 172.8-218.88 172.8-112.32 0-208.288-66.24-208.288-173.76 0-24.96 5.76-49.92 17.28-70.08 39.36-70.08 80.64-88.32 183.36-88.32v28.8z m600.96 394.528H130.88v-28.8h778.56v28.8z m0 122.88H130.88v-28.8h778.56v28.8z" p-id="9266" fill="#d81e06"></path></svg>