<?xml version="1.0" standalone="no"?><!DOCTYPE svg PUBLIC "-//W3C//DTD SVG 1.1//EN" "http://www.w3.org/Graphics/SVG/1.1/DTD/svg11.dtd"><svg t="1566797207569" class="icon" viewBox="0 0 1024 1024" version="1.1" xmlns="http://www.w3.org/2000/svg" p-id="22689" xmlns:xlink="http://www.w3.org/1999/xlink" width="16" height="16"><defs><style type="text/css"></style></defs><path d="M295.872 420.032l-128 7.232 0.064 151.424 127.936 5.312zM319.616 752.768h499.648a64 64 0 1 1 0 128H371.584l-51.968-128zM385.728 123.84h435.712a64 64 0 1 1 0 128H317.44l68.288-128z" p-id="22690" fill="#d81e06"></path><path d="M295.872 453.44l-128-0.896c1.472-218.112 84.736-328.704 247.424-328.704v128c-57.088 0-118.144 15.552-119.424 201.6zM385.408 881.344a183.936 183.936 0 0 1-129.536-51.328c-79.36-75.52-87.936-204.928-87.936-257.152h128c0 72.064 18.88 136.576 48.128 164.288a55.04 55.04 0 0 0 45.632 16l6.464 127.872a121.344 121.344 0 0 1-10.752 0.32z" p-id="22691" fill="#d81e06"></path><path d="M886.656 512a64 64 0 0 1-64 64h-544c-35.328 0-35.328-128 0-128h544a64 64 0 0 1 64 64z" p-id="22692" fill="#d81e06"></path></svg>