<?xml version="1.0" standalone="no"?><!DOCTYPE svg PUBLIC "-//W3C//DTD SVG 1.1//EN" "http://www.w3.org/Graphics/SVG/1.1/DTD/svg11.dtd"><svg t="1566825807362" class="icon" viewBox="0 0 1024 1024" version="1.1" xmlns="http://www.w3.org/2000/svg" p-id="16719" xmlns:xlink="http://www.w3.org/1999/xlink" width="16" height="16"><defs><style type="text/css"></style></defs><path d="M80.763 379.513S61.029 218.018 231.167 220.076v29.696s-124.993-11.885-125.858 129.741H80.763zM943.238 379.513s19.73-161.495-150.42-159.437v29.696s125.002-11.885 125.865 129.741h24.555z" fill="#d81e06" p-id="16720"></path><path d="M943.228 598.395s19.741 161.493-150.409 159.443v-29.703s124.997 11.891 125.86-129.74h24.549zM80.763 597.19S61.024 758.681 231.174 756.633V726.93s-125 11.885-125.865-129.74H80.763z" fill="#d81e06" p-id="16721"></path><path d="M198.972 636.251V354.764h33.703v281.487h-33.703zM288.731 379.009c0-5.961 2.035-10.976 6.104-15.046 4.067-4.07 9.085-6.104 15.046-6.104 6.075 0 11.203 2.006 15.39 6.019 4.184 4.013 6.276 9.056 6.276 15.132 0 5.961-2.092 10.919-6.276 14.874-4.187 3.955-9.314 5.933-15.39 5.933-6.078 0-11.12-1.978-15.132-5.933-4.014-3.956-6.018-8.914-6.018-14.875z m3.956 257.242v-190.18h33.703v190.18h-33.703zM660.32 636.251h-33.703v-109.19c0-20.635-3.21-35.394-9.629-44.278-6.42-8.884-16.967-13.327-31.64-13.327-12.381 0-22.984 5.79-31.812 17.367-8.827 11.579-13.24 25.277-13.24 41.097v108.331h-33.703V523.622c0-36.111-13.926-54.166-41.783-54.166-12.839 0-23.471 5.503-31.897 16.508s-12.638 25.048-12.638 42.128v108.159h-33.703v-190.18h33.703v30.091h0.688c13.524-23.042 33.299-34.563 59.324-34.563 12.725 0 23.957 3.497 33.701 10.489s16.508 16.45 20.291 28.373c14.1-25.908 35.192-38.862 63.278-38.862 41.842 0 62.763 25.793 62.763 77.379v117.273zM705.888 595.154c16.966 12.266 35.25 18.399 54.854 18.399 26.252 0 39.377-8.599 39.377-25.794 0-7.336-2.866-13.384-8.598-18.141-5.731-4.758-17.367-10.403-34.906-16.938-21.094-8.482-34.792-16.881-41.098-25.191-6.305-8.312-9.456-18.37-9.456-30.177 0-16.852 7.136-30.35 21.408-40.496 14.271-10.145 31.84-15.218 52.703-15.218 16.163 0 31.181 2.809 45.052 8.426v32.5c-14.216-9.171-30.321-13.756-48.319-13.756-10.776 0-19.545 2.35-26.309 7.05-6.764 4.7-10.146 10.891-10.146 18.571 0 7.565 2.437 13.47 7.309 17.711s15.677 9.687 32.413 16.336c21.207 7.909 35.537 16.106 42.988 24.589 7.451 8.483 11.177 18.973 11.177 31.468 0 17.425-7.136 31.152-21.408 41.183-14.272 10.031-32.757 15.046-55.455 15.046-19.717 0-36.912-3.726-51.586-11.177v-34.391z" fill="#d81e06" p-id="16722"></path></svg>