<?xml version="1.0" standalone="no"?><!DOCTYPE svg PUBLIC "-//W3C//DTD SVG 1.1//EN" "http://www.w3.org/Graphics/SVG/1.1/DTD/svg11.dtd"><svg t="1566788990637" class="icon" viewBox="0 0 1024 1024" version="1.1" xmlns="http://www.w3.org/2000/svg" p-id="1607" xmlns:xlink="http://www.w3.org/1999/xlink" width="16" height="16"><defs><style type="text/css"></style></defs><path d="M0 0h1024v1024H0z" fill="#d81e06" fill-opacity="0" p-id="1608"></path><path d="M440.064 608l73.92-128H298.666667a42.666667 42.666667 0 1 1 0-85.333333h264.576l27.712-48a42.666667 42.666667 0 1 1 73.898666 42.666666l-3.072 5.333334H725.333333a42.666667 42.666667 0 1 1 0 85.333333h-112.832l-73.898666 128H725.333333a42.666667 42.666667 0 1 1 0 85.333333H489.344l-37.824 65.493334a42.666667 42.666667 0 0 1-73.898667-42.666667l13.184-22.826667H298.666667a42.666667 42.666667 0 1 1 0-85.333333h141.397333z" fill="#d81e06" p-id="1609"></path></svg>