<?xml version="1.0" standalone="no"?><!DOCTYPE svg PUBLIC "-//W3C//DTD SVG 1.1//EN" "http://www.w3.org/Graphics/SVG/1.1/DTD/svg11.dtd"><svg t="1566825646280" class="icon" viewBox="0 0 1024 1024" version="1.1" xmlns="http://www.w3.org/2000/svg" p-id="8363" xmlns:xlink="http://www.w3.org/1999/xlink" width="16" height="16"><defs><style type="text/css"></style></defs><path d="M664.944 832H430.48c-27.808 0-43.712-15.808-43.712-43.456 0-27.648 15.904-43.456 43.712-43.456H664.96c43.712 0 79.472-35.552 79.472-79.008V444.832c0-27.648 15.904-43.456 43.712-43.456 27.824 0 43.712 15.808 43.712 43.456V666.08C831.84 756.944 756.336 832 664.96 832z" p-id="8364" fill="#d81e06"></path><path d="M633.152 192c19.872 0 39.744 19.76 39.744 39.52v398.992c0 19.76-15.904 39.52-39.744 39.52H231.792c-19.872 0-39.744-15.808-39.744-39.52V231.52c0-19.744 15.904-39.504 39.744-39.504h401.36zM362.512 568.8c39.2-13.216 76.4-28.416 111.2-46.016l-10.4-36c-16 8.8-32.4 16.8-48.8 23.6V263.2h-40.8v243.2c0 10.4-8 18.4-24 24l12.8 38.4z m-71.6-158.016v208.8h40.8V348c13.6-25.6 25.2-52 34-80l-39.2-18.4c-18.4 60.8-46.8 114-85.2 158.8l13.6 44.4c12.8-13.6 24.8-27.6 36-42z m247.2-157.6c-0.4 78-6.4 141.2-18.4 190-15.2 57.6-47.6 106.4-96.4 146.8l26.8 32.4c33.6-26.8 60-57.6 79.2-92.8a903.472 903.472 0 0 1 55.2 88l33.2-22.8c-17.2-29.6-40.8-64-71.2-102.8 4.8-13.6 8.8-27.2 12-41.6 12.8-54 19.2-119.6 19.2-197.2h-39.6z m-76.4 45.2l-32.8 11.2c16.4 30.4 31.2 65.6 44.8 105.2l33.6-15.2c-12.8-36-28-70-45.6-101.2z" p-id="8365" fill="#d81e06"></path></svg>