<?xml version="1.0" standalone="no"?><!DOCTYPE svg PUBLIC "-//W3C//DTD SVG 1.1//EN" "http://www.w3.org/Graphics/SVG/1.1/DTD/svg11.dtd"><svg t="1566785527071" class="icon" viewBox="0 0 1024 1024" version="1.1" xmlns="http://www.w3.org/2000/svg" p-id="1423" xmlns:xlink="http://www.w3.org/1999/xlink" width="16" height="16"><defs><style type="text/css"></style></defs><path d="M462.90979397 269.41388421L408.89130097 949.86462498l-201.326592-188.19479576-51.20157772 72.3284423-7.08371342-7.82936747 70.09148018-99.5033897 180.6968301 168.84921584 51.49155428-651.57735917 11.35051158 25.47651319zM827.28607036 817.5110321c-1.65700898 0-18.30994931-6.7108864-26.76069517-14.95450612-9.94205392-10.93625932-13.33892235-20.87831325-18.3099493-39.31253823-32.51880139 25.06226094-70.13290541 54.34989479-100.9946978 54.3498948-57.66391277 0-96.89360055-43.37221025-96.89360054-95.15374112 0-37.61410402 25.89076543-64.37479917 83.55467819-81.93909444 42.54370576-12.46899263 95.15374112-32.51880139 114.41647061-44.20071474 0-40.84527155-0.86992972-113.50511565-76.01528732-113.50511566-13.29749712 0.8285045-58.45099203 4.14252247-72.61841888 70.9614099-1.61558377 5.8823819-6.62803595 14.20885207-18.35137454 14.20885207-11.64048814 0-25.02083571-11.64048814-25.02083571-28.37627891 0-12.55184308 9.94205392-22.53532223 23.3224015-30.07471313 20.91973847-14.20885207 76.80236658-48.42608766 117.77191379-57.62248755 40.80384631 0 92.6268024 26.71926992 92.6268024 100.1661933V731.55369086c0 34.21723559 12.55184308 47.55615795 30.03328792 47.55615794 14.2502773 0 27.58919965-4.92960174 36.86844997-10.85340885l7.49796567 14.25027729-71.12711079 35.00431486z m-45.07064447-200.41523706c-17.52287005 10.02490437-70.13290541 30.11613835-88.5671304 37.61410402-37.61410402 14.16742685-60.10800103 30.0332879-60.10800101 60.93650553 0 43.4550607 35.12859054 66.03180816 65.12045321 66.03180816 28.45912937 0 66.03180816-20.87831325 83.5546782-42.62655622v-121.95586149zM57.60539559 362.28923796c40.0996175-2.77549005 51.11872727-13.13179623 51.11872726-54.59844614V168.79201343c0-46.31340121-4.84675129-49.08889125-43.53791114-56.66970738V103.1330323c27.63062487-6.91801253 55.26124974-13.13179623 76.71951612-29.03908252v57.3739362c13.79459982-8.28504494 31.11034373-20.71261235 52.52718491-35.25286621 19.34557993-11.76476382 36.61989863-19.34557993 55.96547856-19.34557993 57.37393619 0 89.80988713 35.25286622 89.80988713 89.80988713v137.53174598c0 48.34323722 6.2137837 55.26124974 44.90494357 58.0367398v9.65207735h-133.38922351v-9.65207735c46.9762048-2.77549005 55.26124974-12.42756741 55.26124974-58.0367398V190.91308341c0-39.39538868-11.06053499-83.63752865-74.60682967-83.63752865-33.84440857 0-69.09727478 20.71261235-90.55554118 42.17087874v155.46886827c0 44.24213997 6.91801253 54.59844613 54.59844615 57.37393619v9.65207736H57.60539559v-9.65207736z" p-id="1424" fill="#d81e06"></path><path d="M968.91891357 269.41388421v-25.47651319H451.55928239l11.35051158 25.47651319z" p-id="1425" fill="#d81e06"></path></svg>