<?xml version="1.0" standalone="no"?><!DOCTYPE svg PUBLIC "-//W3C//DTD SVG 1.1//EN" "http://www.w3.org/Graphics/SVG/1.1/DTD/svg11.dtd"><svg t="1566807160346" class="icon" viewBox="0 0 1024 1024" version="1.1" xmlns="http://www.w3.org/2000/svg" p-id="1387" xmlns:xlink="http://www.w3.org/1999/xlink" width="16" height="16"><defs><style type="text/css"></style></defs><path d="M464.661333 364.8H659.2v-38.4h-202.538667c-49.045333 0-91.861333 37.888-91.861333 86.933333v1.6c0 49.045333 42.837333 90.666667 91.861333 90.666667H659.2v-38.4h-194.538667c-34.474667 0-61.461333-21.866667-61.461333-52.565333v-1.002667c0-30.72 26.986667-48.832 61.461333-48.832z m154.368 166.4h-54.314666l-25.6 25.6H364.8v38.4h135.914667l-38.4 38.4H364.8v38.4h59.114667l-25.6 25.6h54.314666l25.6-25.6H659.2v-38.4h-142.570667l38.4-38.4H659.2v-38.4h-65.770667l25.6-25.6z" p-id="1388" fill="#d81e06"></path></svg>