<?xml version="1.0" standalone="no"?><!DOCTYPE svg PUBLIC "-//W3C//DTD SVG 1.1//EN" "http://www.w3.org/Graphics/SVG/1.1/DTD/svg11.dtd"><svg t="1566799056852" class="icon" viewBox="0 0 1489 1024" version="1.1" xmlns="http://www.w3.org/2000/svg" p-id="25688" xmlns:xlink="http://www.w3.org/1999/xlink" width="23.265625" height="16"><defs><style type="text/css"></style></defs><path d="M875.36861 679.993535c0-67.642717-55.025797-122.675082-122.675082-122.675082s-122.675082 55.032365-122.675081 122.675082c0 67.655853 55.025797 122.675082 122.675081 122.675082s122.675082-55.032365 122.675082-122.675082zM512.696197 221.331383c-67.649285 0-122.668514 55.019229-122.668514 122.668514s55.019229 122.675082 122.668514 122.675082 122.675082-55.025797 122.675081-122.675082-55.025797-122.668514-122.675081-122.668514zM1099.373126 343.999897c0-67.649285-55.025797-122.668514-122.675082-122.668514s-122.675082 55.019229-122.675082 122.668514 55.025797 122.675082 122.675082 122.675082 122.675082-55.045501 122.675082-122.675082z" p-id="25689" fill="#d81e06"></path></svg>