<?xml version="1.0" standalone="no"?><!DOCTYPE svg PUBLIC "-//W3C//DTD SVG 1.1//EN" "http://www.w3.org/Graphics/SVG/1.1/DTD/svg11.dtd"><svg t="1566785715884" class="icon" viewBox="0 0 1024 1024" version="1.1" xmlns="http://www.w3.org/2000/svg" p-id="6158" xmlns:xlink="http://www.w3.org/1999/xlink" width="16" height="16"><defs><style type="text/css"></style></defs><path d="M960 713H64V311h896v402zM80 697h864V327H80v370z" fill="#d81e06" p-id="6159"></path><path d="M297.1 600.2c-10.9 0-20.2-4.4-28-13.3-7.8-8.9-11.8-21.9-11.8-39.1 0-15.9 4.2-28.7 12.7-38.2 8.4-9.5 18.4-14.3 29.9-14.3 4.8 0 9.8 1.1 14.9 3.2s9.2 5.4 12.2 9.7v-48.3c0-3.6-0.6-6.2-1.8-8-1.2-1.8-3.3-2.7-6.3-2.7h-7.2v-5.4h10c3 0 6-0.6 9-1.8 3-1.2 6-3 9-5.4v142.9c0 3 0.6 5.1 1.7 6.3 1.1 1.2 2.8 1.8 5.1 1.8h5.9v5.4h-5.2c-2.3 0-5.1 0.5-8.3 1.4-3.2 0.9-6.6 2.3-10 4.1H327v-16.6c-3 5.5-7.1 10-12.2 13.3-5.2 3.4-11 5-17.7 5z m29.9-83.8c-3-4.9-6.9-8.5-11.8-10.6-4.8-2.1-9.7-3.2-14.5-3.2-9 0-16.1 4.3-21.3 12.9-5.1 8.6-7.7 20-7.7 34.1 0 14.8 2.4 25.7 7.2 32.8 4.8 7.1 11.8 10.6 20.8 10.6 6.6 0 12.2-2.1 16.7-6.5 4.5-4.3 8-10.8 10.4-19.4v-50.7zM374 619.2l-6.3-3.6L460 422l6.3 3.6L374 619.2zM528.7 600.2c-10.9 0-20.2-4.4-28-13.3-7.8-8.9-11.8-21.9-11.8-39.1 0-15.9 4.2-28.7 12.7-38.2 8.4-9.5 18.4-14.3 29.9-14.3 4.8 0 9.8 1.1 14.9 3.2s9.2 5.4 12.2 9.7v-48.3c0-3.6-0.6-6.2-1.8-8-1.2-1.8-3.3-2.7-6.3-2.7h-7.2v-5.4h10c3 0 6-0.6 9-1.8 3-1.2 6-3 9-5.4v142.9c0 3 0.6 5.1 1.7 6.3 1.1 1.2 2.8 1.8 5.1 1.8h5.9v5.4h-5.2c-2.3 0-5.1 0.5-8.3 1.4-3.2 0.9-6.6 2.3-10 4.1h-1.8v-16.6c-3 5.5-7.1 10-12.2 13.3-5.3 3.4-11.2 5-17.8 5z m29.9-83.8c-3-4.9-6.9-8.5-11.8-10.6-4.8-2.1-9.7-3.2-14.5-3.2-9 0-16.1 4.3-21.3 12.9-5.1 8.6-7.7 20-7.7 34.1 0 14.8 2.4 25.7 7.2 32.8 4.8 7.1 11.8 10.6 20.8 10.6 6.6 0 12.2-2.1 16.7-6.5 4.5-4.3 8-10.8 10.4-19.4v-50.7zM645.4 570.9c0 8.6 1.5 14.5 4.5 17.5 3 3.1 7.5 4.6 13.6 4.6 6 0 10.9-2 14.5-6.1 3.6-4.1 6-9.9 7.2-17.4l4.5 1.8c-1.2 8.5-4.4 15.4-9.5 20.8s-11.9 8.1-20.4 8.1c-9 0-15.8-2.7-20.4-8.2-4.5-5.5-6.8-14-6.8-25.6v-63.9h-27.1v-5.4h7.2c7.2 0 13.1-2.3 17.6-6.8 4.5-4.5 7.4-11.6 8.6-21.3l0.9-7.2h5.4v35.3h36.2v5.4h-36.2v68.4z" fill="#d81e06" p-id="6160"></path></svg>