<?xml version="1.0" standalone="no"?><!DOCTYPE svg PUBLIC "-//W3C//DTD SVG 1.1//EN" "http://www.w3.org/Graphics/SVG/1.1/DTD/svg11.dtd"><svg t="1566785545401" class="icon" viewBox="0 0 1024 1024" version="1.1" xmlns="http://www.w3.org/2000/svg" p-id="1868" xmlns:xlink="http://www.w3.org/1999/xlink" width="16" height="16"><defs><style type="text/css"></style></defs><path d="M191.56294163 618.60522667v-37.47688297h640.87411674v37.47688297H191.56294163zM579.53606163 994.81099378c-1.28159289 0-14.40821097-5.24288-21.01035615-11.80618903-7.84490192-8.58278875-10.52459615-16.42769067-14.40821096-30.83590164-25.55418548 19.65109097-55.06965808 42.64209067-79.34225067 42.64209067-45.24411259 0-76.08001422-34.09813808-76.08001422-74.75958519 0-29.55430875 20.31130548-50.52582875 65.55541807-64.27382518 33.43792355-9.86438163 74.75958518-25.59302163 89.82801067-34.75835259 0-32.15633067-0.66021452-89.16779615-59.65232355-89.16779615-10.52459615 0.66021452-45.94316325 3.26223645-57.08913779 55.72987258-1.28159289 4.58266548-5.24288 11.10713837-14.40821095 11.10713838s-19.68992711-9.12649482-19.68992711-22.25311288c0-9.86438163 7.88373808-17.70928355 18.36949806-23.57354193 16.42769067-11.18481067 60.35137422-38.05942518 92.46886875-45.28294874 32.15633067 0 72.77894163 21.01035615 72.77894163 78.68203614v140.97521778c0 26.91345067 9.86438163 37.39921067 23.65121422 37.39921067 11.10713837 0 21.63173452-3.92245097 28.81642192-8.54395259l5.86425837 11.18481067-55.65220029 27.53482903z m-35.41856711-157.40290845c-13.74799645 7.84490192-55.06965808 23.57354192-69.51670519 29.51547259-29.51547259 11.14597452-47.22475615 23.57354192-47.22475615 47.84613453 0 34.09813808 27.53482903 51.80742163 51.14720712 51.80742163 22.29194903 0 51.80742163-16.38885452 65.55541807-33.43792356v-95.73110519zM519.84490192 202.98076918c3.96128711-1.32042903 10.52459615-1.32042903 17.04906905-1.32042903 68.81765452 0 127.18838518 53.12785067 127.18838518 131.18850844 0 91.1484397-76.74022875 156.08247941-164.58759585 156.08247941-26.87461452 0-60.97275259-3.26223645-92.46886875-18.36949808v-358.06928592c0-41.98187615-2.60202192-46.56454163-47.22475614-53.78806518v-7.18468741c30.17568711-3.30107259 64.9340397-15.10726163 78.68203614-22.29194904v203.26839941l81.36173037-29.5154726z m-81.32289422 196.70509037c0 11.14597452 0.66021452 16.42769067 3.96128712 26.87461453 4.58266548 15.72864 33.43792355 43.30230518 80.6626797 43.30230517 62.95339615 0 102.91579259-49.86561422 102.91579259-122.64455584 0-67.53606163-44.54506192-118.02305422-111.45974519-118.02305423-30.83590163 0-60.35137422 7.22352355-76.08001422 16.38885452v154.10183585z" p-id="1869" fill="#d81e06"></path></svg>