<?xml version="1.0" standalone="no"?><!DOCTYPE svg PUBLIC "-//W3C//DTD SVG 1.1//EN" "http://www.w3.org/Graphics/SVG/1.1/DTD/svg11.dtd"><svg t="1566809991045" class="icon" viewBox="0 0 1024 1024" version="1.1" xmlns="http://www.w3.org/2000/svg" p-id="8034" xmlns:xlink="http://www.w3.org/1999/xlink" width="16" height="16"><defs><style type="text/css"></style></defs><path d="M674.087 173.22c0 12.945-4.272 24.078-12.816 33.269s-19.288 14.11-32.234 14.11c-13.204 0-22.913-4.013-28.868-12.168s-12.04-21.36-17.994-39.613c-2.2-6.861-4.79-12.298-8.415-16.311-3.495-3.884-8.543-5.826-15.146-5.826-7.767 0-13.722 3.237-17.864 9.71s-7.638 15.016-10.615 25.372l-54.5 178.129h75.73l-13.075 41.425h-75.6l-78.45 256.577c-20.713 66.928-39.483 119.357-56.312 157.675-16.83 38.319-40.39 71.2-70.812 98.773-30.421 27.574-68.869 41.296-115.472 41.296-33.27 0-59.16-7.25-77.284-21.877-18.124-14.629-27.315-31.07-27.315-49.322 0-13.852 4.79-25.891 14.37-36.247 9.708-10.486 22.136-15.535 37.411-15.535 18.253 0 30.422 4.79 36.118 14.628 5.696 9.839 9.32 22.525 10.745 38.19 1.812 20.453 10.615 30.68 26.15 30.68 15.404 0 27.961-8.544 37.93-25.373 9.967-17.088 19.935-43.108 30.292-78.19L355.89 401.835h-79.485l12.557-41.425h79.355l8.544-28.869c11.651-40.778 24.726-76.507 38.836-107.058s35.082-57.607 62.915-81.426 62.526-35.6 104.34-35.6c15.664 0 30.55 2.718 44.661 7.896s25.373 12.687 33.788 22.525c8.544 9.71 12.686 21.62 12.686 35.341z m336.969 235.476c0 19.159-2.719 37.8-8.156 55.406h-43.238c5.955-20.713 9.062-39.483 9.062-56.312 0-3.884-1.165-8.156-3.495-12.557-2.33-4.402-6.732-6.732-13.334-6.732-4.79 0-8.932 1.424-12.169 4.013-3.365 2.719-11.52 10.874-24.855 24.855l-83.886 88.288 37.93 119.486c4.143 12.945 8.415 23.69 12.557 32.363 4.143 8.544 9.45 12.816 15.794 12.816 10.615 0 19.935-8.156 28.35-24.337 8.414-16.311 14.37-30.68 17.994-43.238h40.52c-9.063 32.752-20.713 59.549-35.212 80.262s-29.904 35.858-46.474 45.308c-16.57 9.45-32.234 14.24-46.863 14.24-23.819 0-41.813-8.155-54.24-24.596s-23.561-39.483-33.14-69.646l-17.348-56.571L652.08 696.73c-28.868 30.421-52.947 45.567-72.106 45.567-26.408 0-39.613-17.605-39.613-52.817 0-24.984 5.179-49.84 15.794-74.954h48.674c-11.003 31.328-16.7 51.264-16.7 60.067 0 9.32 2.849 13.981 8.545 13.981 4.79 0 13.075-5.825 24.855-17.606l115.473-122.592-22.137-70.294c-4.401-14.37-8.155-25.114-10.745-31.846-2.718-6.731-6.084-12.168-10.226-16.44-4.013-4.143-9.192-6.343-15.146-6.343-17.218 0-31.587 22.266-43.238 66.798h-41.425c9.709-31.587 20.583-57.737 33.14-78.708 12.427-20.842 26.538-36.895 42.202-48.028 15.664-11.003 32.363-16.7 50.098-16.7 23.432 0 42.332 8.415 56.572 25.115 14.24 16.7 25.89 39.742 34.952 69.128l7.25 23.043 69.387-74.954c27.056-28.22 51.393-42.331 73.012-42.331 21.36 0 35.082 6.861 41.166 20.713 6.085 13.98 9.192 27.703 9.192 41.166z" p-id="8035" fill="#d81e06"></path></svg>