<?xml version="1.0" standalone="no"?><!DOCTYPE svg PUBLIC "-//W3C//DTD SVG 1.1//EN" "http://www.w3.org/Graphics/SVG/1.1/DTD/svg11.dtd"><svg t="1566785738014" class="icon" viewBox="0 0 1024 1024" version="1.1" xmlns="http://www.w3.org/2000/svg" p-id="7579" xmlns:xlink="http://www.w3.org/1999/xlink" width="16" height="16"><defs><style type="text/css"></style></defs><path d="M322.92029 959.68c-38.6-2.6-73.6-23.82-97.76-54.04L149.50029 811.08A16.014 16.014 0 0 1 152.00029 788.58l25-20a15.966 15.966 0 0 1 22.46 2.5l79.44 99.3c15.38 19.28 39.86 28.82 64.84 24.66 28.12-4.68 49.44-28.2 55.86-55.98l153.7-666.62c12.86-55.8 57.8-101.02 114.64-107.54 46.1-5.28 90.24 13.18 118.76 48.76l87.8 109.84a15.99 15.99 0 0 1-2.5 22.48l-25 20c-6.9 5.52-16.96 4.4-22.46-2.5l-87.8-109.84c-15.4-19.24-39.66-28.78-64.58-24.74-28.18 4.58-49.66 28.04-56.08 55.9l-155.1 672.62c-14.62 63.38-72.2 106.7-138.06 102.26z" p-id="7580" fill="#d81e06"></path></svg>