<?xml version="1.0" standalone="no"?><!DOCTYPE svg PUBLIC "-//W3C//DTD SVG 1.1//EN" "http://www.w3.org/Graphics/SVG/1.1/DTD/svg11.dtd"><svg t="1566785692817" class="icon" viewBox="0 0 1024 1024" version="1.1" xmlns="http://www.w3.org/2000/svg" p-id="5633" xmlns:xlink="http://www.w3.org/1999/xlink" width="16" height="16"><defs><style type="text/css"></style></defs><path d="M398.058667 613.034667h42.666666v-277.333334h-42.666666v277.333334z m226.794666-170.666667h-34.794666v4.672c0-7.573333-24.256-11.989333-38.208-11.989333-42.410667 0-76.778667 40.106667-76.778667 89.6s34.410667 89.6 76.821333 89.6c13.205333 0 25.642667-3.904 36.501334-10.752-0.512 27.370667-19.178667 46.4-36.48 46.4-9.664 0-18.410667 5.802667-25.152-15.530667h-44.16c12.330667 21.333333 38.698667 53.930667 69.312 53.930667 13.952 0 26.986667-3.029333 38.272-10.624 22.293333-14.997333 36.266667-37.568 35.733333-81.706667l-1.066667-153.6z m-34.794666 84.053333c0 27.434667-17.450667 49.429333-38.208 49.429334-21.205333 0-38.378667-22.933333-38.378667-51.2 0-28.288 17.152-51.2 38.357333-51.2 20.757333 0 38.229333 21.994667 38.229334 49.429333v3.541333z" p-id="5634" fill="#d81e06"></path></svg>