<?xml version="1.0" standalone="no"?><!DOCTYPE svg PUBLIC "-//W3C//DTD SVG 1.1//EN" "http://www.w3.org/Graphics/SVG/1.1/DTD/svg11.dtd"><svg t="1566785668059" class="icon" viewBox="0 0 1024 1024" version="1.1" xmlns="http://www.w3.org/2000/svg" p-id="5486" xmlns:xlink="http://www.w3.org/1999/xlink" width="16" height="16"><defs><style type="text/css"></style></defs><path d="M274.986667 738.346667l-3.669334 12.330666H85.333333l4.693334-12.373333c18.645333-0.426667 30.976-1.962667 36.992-4.650667 9.770667-3.754667 16.981333-8.96 21.632-15.658666 7.338667-10.453333 14.933333-29.098667 22.698666-55.978667l78.634667-272.682667c6.698667-22.656 10.026667-39.765333 10.026667-51.328a24.362667 24.362667 0 0 0-4.352-14.677333 26.794667 26.794667 0 0 0-13.141334-9.173333c-5.888-2.133333-17.408-3.157333-34.517333-3.157334L212.010667 298.666667h174.634666l-3.626666 12.373333c-14.250667-0.256-24.789333 1.28-31.701334 4.608a50.432 50.432 0 0 0-22.826666 19.029333c-5.205333 8.192-11.946667 26.453333-20.138667 54.656l-78.336 272.64c-7.125333 25.173333-10.666667 41.130667-10.666667 48.042667 0 5.546667 1.365333 10.24 4.138667 14.165333 2.773333 3.84 7.253333 6.869333 13.354667 8.96 6.101333 2.133333 18.816 3.84 38.144 5.205334z m209.664-289.365334l-44.330667 151.68c41.557333-61.994667 73.386667-102.784 95.530667-122.325333 22.101333-19.541333 43.392-29.354667 63.829333-29.354667 11.093333 0 20.266667 3.669333 27.477333 11.008 7.253333 7.338667 10.837333 16.896 10.837334 28.672 0 13.354667-3.2 31.146667-9.642667 53.333334l-40.704 140.373333c-4.650667 16.213333-6.997333 26.069333-6.997333 29.610667 0 3.114667 0.896 5.76 2.688 7.850666 1.792 2.133333 3.669333 3.157333 5.674666 3.157334 2.645333 0 5.888-1.450667 9.642667-4.309334 11.776-9.344 24.661333-23.552 38.656-42.666666l10.368 6.314666c-20.693333 29.568-40.234667 50.688-58.666667 63.36-12.885333 8.661333-24.448 12.970667-34.688 12.970667a26.24 26.24 0 0 1-19.626666-7.509333 27.605333 27.605333 0 0 1-7.381334-20.138667c0-10.666667 3.797333-29.013333 11.349334-55.04l38.656-133.973333c4.906667-16.64 7.338667-29.653333 7.338666-38.997334a14.336 14.336 0 0 0-4.309333-10.837333 14.805333 14.805333 0 0 0-10.666667-4.181333c-6.229333 0-13.653333 2.688-22.357333 8.021333-16.426667 9.984-33.536 26.496-51.328 49.493333-17.792 23.04-36.565333 52.394667-56.32 88.192a324.48 324.48 0 0 0-26.026667 61.994667l-16.64 54.997333H347.008l60.672-208.64c7.082667-25.173333 10.666667-40.277333 10.666667-45.354666a17.109333 17.109333 0 0 0-5.845334-12.842667 20.309333 20.309333 0 0 0-14.506666-5.546667c-2.645333 0-7.338667 0.469333-13.994667 1.365334l-12.672 2.005333-2.005333-11.989333 115.328-20.693334z m309.034666 0c10.88 11.562667 19.072 23.125333 24.661334 34.688 3.968 7.978667 10.538667 29.013333 19.626666 62.976l29.354667-43.946666c7.765333-10.666667 17.237333-20.864 28.330667-30.549334 11.093333-9.642667 20.906667-16.256 29.354666-19.797333 5.333333-2.261333 11.221333-3.370667 17.664-3.370667 9.557333 0 17.152 2.56 22.826667 7.68s8.533333 11.349333 8.533333 18.688c0 8.448-1.706667 14.208-5.034666 17.322667a31.146667 31.146667 0 0 1-21.333334 8.32c-4.693333 0-9.685333-0.981333-15.018666-2.986667-10.410667-3.541333-17.408-5.333333-20.992-5.333333-5.333333 0-11.648 3.114667-18.986667 9.344-13.781333 11.52-30.208 33.877333-49.322667 66.986667l27.306667 114.645333c4.266667 17.578667 7.808 28.074667 10.666667 31.530667 2.901333 3.413333 5.802667 5.12 8.661333 5.12 4.693333 0 10.112-2.56 16.341333-7.637334 12.245333-10.24 22.656-23.552 31.36-39.978666l11.648 5.973333A208.725333 208.725333 0 0 1 896 743.978667c-12.202667 9.813333-22.570667 14.677333-31.018667 14.677333-12.416 0-22.314667-6.997333-29.653333-20.992-4.693333-8.661333-14.336-45.994667-29.013333-112-34.645333 60.245333-62.421333 98.986667-83.328 116.352-13.525333 11.093333-26.666667 16.64-39.338667 16.64a36.010667 36.010667 0 0 1-24.32-9.642667 25.386667 25.386667 0 0 1-7.978667-19.669333c0-7.338667 2.432-13.44 7.296-18.346667a24.490667 24.490667 0 0 1 18.005334-7.338666c7.125333 0 14.677333 3.584 22.698666 10.666666 5.76 5.12 10.24 7.68 13.312 7.68 2.688 0 6.101333-1.792 10.325334-5.333333 10.453333-8.448 24.661333-26.666667 42.666666-54.656 18.005333-28.032 29.781333-48.213333 35.328-60.672a3611.306667 3611.306667 0 0 0-22.314666-85.674667c-5.12-14.464-11.776-24.661333-20.010667-30.677333-8.192-5.973333-20.309333-8.96-36.309333-8.96-5.12 0-11.008 0.170667-17.664 0.64v-11.989333l89.002666-15.701334z" p-id="5487" fill="#d81e06"></path></svg>