<?xml version="1.0" standalone="no"?><!DOCTYPE svg PUBLIC "-//W3C//DTD SVG 1.1//EN" "http://www.w3.org/Graphics/SVG/1.1/DTD/svg11.dtd"><svg t="1566785642891" class="icon" viewBox="0 0 1024 1024" version="1.1" xmlns="http://www.w3.org/2000/svg" p-id="5339" xmlns:xlink="http://www.w3.org/1999/xlink" width="16" height="16"><defs><style type="text/css"></style></defs><path d="M181.333333 604.650667h42.666667v-277.333334h-42.666667v277.333334z m384 0h106.666667v-106.666667h-106.666667v106.666667z m21.333334-85.333334h64v64h-64v-64z m106.666666-106.666666v149.333333h149.333334v-149.333333h-149.333334z m128 128h-106.666666v-106.666667h106.666666v106.666667z m-507.392-98.282667c-41.216 0-74.624 38.976-74.624 87.061333s33.408 87.061333 74.624 87.061334 74.624-38.976 74.624-87.061334c0-48.106667-33.408-87.061333-74.624-87.061333z m0 136.789333c-20.608 0-37.312-22.272-37.312-49.749333s16.704-49.749333 37.312-49.749333 37.312 22.272 37.312 49.749333-16.704 49.749333-37.312 49.749333z m236.138667-123.84h-39.850667l-0.896 8c-3.562667-8.448-19.114667-15.552-37.653333-15.765333-41.216-0.448-70.848 38.976-70.848 87.061333s35.285333 87.061333 76.501333 87.061334c12.821333 0 25.834667-3.776 36.394667-10.432-0.490667 26.602667-14.144 49.856-35.050667 51.2-9.386667 0.597333-17.322667-0.896-23.914666-15.104h-42.901334c11.989333 21.333333 37.589333 49.365333 67.349334 49.365333a66.56 66.56 0 0 0 37.184-11.84c21.653333-14.570667 35.242667-36.949333 34.730666-79.829333l-1.045333-149.717334zM501.333333 536.341333c0 26.666667-9.493333 48.021333-29.653333 48.021334-20.608 0-33.557333-22.272-33.557333-49.749334s11.050667-49.749333 31.658666-49.749333c20.16 0 31.530667 21.376 31.530667 48.021333l0.021333 3.456z" p-id="5340" fill="#d81e06"></path></svg>