<?xml version="1.0" standalone="no"?><!DOCTYPE svg PUBLIC "-//W3C//DTD SVG 1.1//EN" "http://www.w3.org/Graphics/SVG/1.1/DTD/svg11.dtd"><svg t="1566797384257" class="icon" viewBox="0 0 1024 1024" version="1.1" xmlns="http://www.w3.org/2000/svg" p-id="22838" xmlns:xlink="http://www.w3.org/1999/xlink" width="16" height="16"><defs><style type="text/css"></style></defs><path d="M293.824 713.472h499.648a64 64 0 1 1 0 128H345.856l-52.032-128zM360 212.544h435.712a64 64 0 1 1 0 128H291.712l68.288-128z" p-id="22839" fill="#d81e06"></path><path d="M270.144 542.144l-128-0.896c1.472-218.112 84.736-328.704 247.424-328.704v128c-57.152 0-118.208 15.552-119.424 201.6z" p-id="22840" fill="#d81e06"></path><path d="M359.616 842.048a184.128 184.128 0 0 1-129.472-51.264c-79.424-75.52-88-204.992-88-257.152h128c0 72 18.88 136.512 48.128 164.352a54.272 54.272 0 0 0 45.632 15.936l6.528 127.872a204.928 204.928 0 0 1-10.816 0.256z" p-id="22841" fill="#d81e06"></path><path d="M860.928 536.704a64 64 0 0 1-64 64h-544c-35.328 0-35.328-128 0-128h544a64 64 0 0 1 64 64z" p-id="22842" fill="#d81e06"></path><path d="M253.568 941.76c-29.12-20.032-35.968-60.608-15.232-90.752L671.104 100.48c20.736-30.144 61.12-38.272 90.24-18.24 29.12 20.032 35.904 60.672 15.104 90.816L343.872 923.52c-20.8 30.08-61.184 38.208-90.304 18.24z" p-id="22843" fill="#d81e06"></path></svg>