<?xml version="1.0" standalone="no"?><!DOCTYPE svg PUBLIC "-//W3C//DTD SVG 1.1//EN" "http://www.w3.org/Graphics/SVG/1.1/DTD/svg11.dtd"><svg t="1566800096633" class="icon" viewBox="0 0 1024 1024" version="1.1" xmlns="http://www.w3.org/2000/svg" p-id="27854" xmlns:xlink="http://www.w3.org/1999/xlink" width="16" height="16"><defs><style type="text/css"></style></defs><path d="M555.54036401 366.10615444h-97.90615986c-4.81612397 56.79555209-9.45869393 103.35141712-13.99279263 139.64590095-4.51240445 36.31617807-8.89464336 67.53420687-13.14671677 93.65408644-4.23037917 26.14157381-8.61261809 49.94016839-13.1467168 71.41747802-3.66632862 16.68287987-9.04650314 29.74281966-16.09713506 39.2015136-7.0723262 9.45869393-17.52895573 16.03205235-31.36988856 19.69838092-11.30270535 2.82025277-22.54032797 0.56405055-33.6911736-6.7903009-11.17253984-7.35435149-17.87606375-16.09713507-20.13226599-26.27173932-1.69215167-7.63637674-2.12603669-14.05787538-1.27996084-19.28619015s2.38636775-10.08782724 4.66426421-14.62192594c2.25620223-4.51240445 4.79442973-8.61261809 7.63637675-12.30064096 2.82025277-3.66632862 5.7923653-7.35435149 8.89464337-11.0206801 0.84607581-1.12810113 5.72728255-6.92046644 14.62192592-17.37709595s15.59816726-19.98040621 20.13226598-28.61471855c4.51240445-8.61261809 7.33265722-18.15808903 8.48245259-28.61471856l25.42566349-198.76273803h-41.1106078c-11.58473062 0-22.60541075 2.75517002-33.06204023 8.26551008s-18.50519709 11.93183867-24.16739688 19.28619015l-18.22317176 27.11781514h-14.83886847c3.94835389-11.02068009 8.89464336-24.23247964 14.83886847-39.63539862 5.92253084-15.40291903 14.12295814-30.30687022 24.57958763-44.71185365 8.20042731-12.14878118 19.19941313-22.67049348 33.06204023-31.56513685 13.84093286-8.89464336 29.93806795-13.34196507 48.31309954-13.34196506h323.78671304v74.58483881h-109.33903077c-7.0723262 67.53420687-10.58679503 135.48060455-10.58679504 203.83919302 0 12.43080647 2.12603669 24.57958766 6.35641587 36.44634359 4.23037917 11.86675594 9.45869393 20.91325906 15.68494431 27.11781515 7.89670778 7.35435149 17.5940385 12.08369844 29.02690935 14.18804091s23.10437851-1.47520917 34.97113444-10.80373755c6.48658139-5.07645499 11.23762261-10.86882033 14.18804087-17.37709598 2.97211255-6.48658139 4.88120672-12.71283172 5.72728256-18.65705682l2.53822753-17.78928675h18.22317177c-0.28202527 23.45148655-3.81818838 44.58168812-10.58679504 63.36891046-6.79030092 18.78722236-14.83886847 33.90811609-24.16739689 45.34098697s-18.50519709 19.69838094-27.55170018 24.79653017c-10.17460428 6.20455615-22.04136015 9.95766173-35.60026777 11.23762261-13.55890756 1.27996087-25.98971407-1.90909421-37.29241938-9.54547093-18.65705683-13.55890756-32.78001495-34.88435743-42.39056868-63.99804379-5.35848027-16.94321093-8.41736982-39.3316791-9.11158587-67.16540461-0.71591033-27.83372549 0.21694254-55.01662339 2.75517-81.59208224l14.88225695-139.36387568z" p-id="27855" fill="#d81e06"></path></svg>