<?xml version="1.0" standalone="no"?><!DOCTYPE svg PUBLIC "-//W3C//DTD SVG 1.1//EN" "http://www.w3.org/Graphics/SVG/1.1/DTD/svg11.dtd"><svg t="1566791273654" class="icon" viewBox="0 0 1024 1024" version="1.1" xmlns="http://www.w3.org/2000/svg" p-id="20305" xmlns:xlink="http://www.w3.org/1999/xlink" width="16" height="16"><defs><style type="text/css"></style></defs><path d="M469.333333 405.333333v-152.896c0-21.589333 19.093333-39.104 42.666667-39.104s42.666667 17.493333 42.666667 39.104V405.333333h152.896c21.589333 0 39.104 19.093333 39.104 42.666667s-17.493333 42.666667-39.104 42.666667H554.666667v152.896C554.666667 665.152 535.573333 682.666667 512 682.666667s-42.666667-17.493333-42.666667-39.104V490.666667h-152.896C294.848 490.666667 277.333333 471.573333 277.333333 448s17.493333-42.666667 39.104-42.666667H469.333333z m-152.896 384C294.848 789.333333 277.333333 770.24 277.333333 746.666667s17.493333-42.666667 39.104-42.666667h391.125334c21.589333 0 39.104 19.093333 39.104 42.666667s-17.493333 42.666667-39.104 42.666666H316.437333z" fill="#d81e06" p-id="20306"></path></svg>