<?xml version="1.0" standalone="no"?><!DOCTYPE svg PUBLIC "-//W3C//DTD SVG 1.1//EN" "http://www.w3.org/Graphics/SVG/1.1/DTD/svg11.dtd"><svg t="1566785761329" class="icon" viewBox="0 0 1024 1024" version="1.1" xmlns="http://www.w3.org/2000/svg" p-id="8921" xmlns:xlink="http://www.w3.org/1999/xlink" width="16" height="16"><defs><style type="text/css"></style></defs><path d="M638.933333 64c17.6736 0 32 14.3264 32 32 0 17.6736-14.3264 32-32 32H148.266667c-11.7824 0-21.333333 9.550933-21.333334 21.333333v724.933334c0 11.7824 9.550933 21.333333 21.333334 21.333333h726.4c11.7824 0 21.333333-9.550933 21.333333-21.333333V382.850133c0-17.6736 14.3264-32 32-32 17.6736 0 32 14.3264 32 32v491.416534c0 47.128533-38.2048 85.333333-85.333333 85.333333H148.266667c-47.128533 0-85.333333-38.2048-85.333334-85.333333V149.333333c0-47.128533 38.2048-85.333333 85.333334-85.333333h490.666666z" fill="#d81e06" p-id="8922"></path><path d="M512 385.322667C542.696533 343.0912 586.5792 321.066667 641.066667 321.066667c64.024533 0 113.406933 30.407467 143.960533 88.2816A138.666667 138.666667 0 0 1 801.066667 474.087467v262.688c0 17.672533-14.3264 32-32 32-17.6736 0-32-14.327467-32-32v-262.688a74.666667 74.666667 0 0 0-8.6368-34.858667C708.850133 402.139733 681.1232 385.066667 641.066667 385.066667c-40.056533 0-67.783467 17.073067-87.3632 54.161066a74.666667 74.666667 0 0 0-8.6368 34.858667v262.688c0 17.674667-14.3264 32-32 32-0.357333 0-0.712533-0.005333-1.066667-0.017067-0.354133 0.011733-0.709333 0.018133-1.066667 0.018134-17.6736 0-32-14.327467-32-32v-262.688a74.666667 74.666667 0 0 0-8.6368-34.858667C450.7168 402.139733 422.989867 385.066667 382.933333 385.066667c-40.056533 0-67.783467 17.073067-87.3632 54.161066a74.666667 74.666667 0 0 0-8.6368 34.858667v262.688c0 17.674667-14.3264 32-32 32-17.6736 0-32-14.325333-32-32v-262.688a138.666667 138.666667 0 0 1 16.039467-64.738133C269.5264 351.474133 318.9088 321.066667 382.933333 321.066667c54.487467 0 98.370133 22.023467 129.066667 64.256zM927.050667 228.258133c17.672533 0 32 14.327467 32 32 0 17.6736-14.327467 32-32 32H800.1472c-29.074133 0-43.082667-35.639467-21.7888-55.435733a1694.424533 1694.424533 0 0 1 64.427733-56.891733c4.829867-4.053333 20.888533-17.198933 20.632534-16.987734 7.3248-6.048 12.416-10.4512 16.768-14.568533 11.4208-10.8032 15.4496-17.498667 15.4496-22.1408 0-9.243733-2.373333-17.114667-6.360534-21.992533-4.2944-5.252267-11.396267-8.3744-24.077866-8.3744-17.665067 0-28.212267 7.799467-36.309334 28.5344-6.429867 16.461867-24.987733 24.5952-41.4496 18.165333-16.461867-6.4288-24.5952-24.9856-18.165333-41.447467 17.361067-44.455467 50.893867-69.252267 95.925333-69.252266 31.2576 0 56.728533 11.1968 73.626667 31.867733 14.133333 17.288533 20.810667 39.4336 20.810667 62.4992 0 14.2752-4.116267 27.6512-11.669334 40.202667-5.896533 9.799467-13.669333 18.850133-23.799466 28.432-5.607467 5.3056-11.658667 10.5376-19.997867 17.424-0.010667 0.008533-14.088533 11.533867-19.408 15.965866h42.286933z" fill="#d81e06" p-id="8923"></path></svg>