<?xml version="1.0" standalone="no"?><!DOCTYPE svg PUBLIC "-//W3C//DTD SVG 1.1//EN" "http://www.w3.org/Graphics/SVG/1.1/DTD/svg11.dtd"><svg t="1566799221143" class="icon" viewBox="0 0 1489 1024" version="1.1" xmlns="http://www.w3.org/2000/svg" p-id="26059" xmlns:xlink="http://www.w3.org/1999/xlink" width="23.265625" height="16"><defs><style type="text/css"></style></defs><path d="M752.700096 466.655275c67.649285 0 122.675082-55.025797 122.675082-122.675081s-55.025797-122.655378-122.675082-122.655378-122.675082 55.019229-122.675082 122.668513 55.025797 122.661946 122.675082 122.661946zM390.027683 679.993535c0 67.655853 55.019229 122.675082 122.668514 122.675082s122.675082-55.019229 122.675081-122.675082c0-67.642717-55.025797-122.675082-122.675081-122.675082s-122.668514 55.032365-122.668514 122.675082zM976.698044 802.655481c67.649285 0 122.675082-55.019229 122.675082-122.675082 0-67.642717-55.025797-122.661946-122.675082-122.661946s-122.675082 55.032365-122.675082 122.675082c0 67.655853 55.025797 122.661946 122.675082 122.661946z" p-id="26060" fill="#d81e06"></path></svg>